<?xml version="1.0" encoding="utf-8"?>
<!-- Generator: Adobe Illustrator 22.1.0, SVG Export Plug-In . SVG Version: 6.00 Build 0)  -->
<svg version="1.1" id="Layer_1" xmlns="http://www.w3.org/2000/svg" xmlns:xlink="http://www.w3.org/1999/xlink" x="0px" y="0px"
	 viewBox="0 0 429.6 379" style="enable-background:new 0 0 429.6 379;" xml:space="preserve">
<style type="text/css">
	.st0{fill:#FFFFFF;}
	.st1{fill:#C4161C;}
	.st2{fill:#FFCC06;}
</style>
<rect x="107.5" y="25.6" class="st0" width="322.2" height="323.4"/>
<g>
	<path class="st1" d="M342.8,162.7c-23.9-1.9-48-2.9-72.2-2.9c-24.3,0-48.4,1-72.3,2.9c-30.7,2.4-60.9,6.5-90.6,12V379h322V173.9
		C401.1,168.8,372.1,165,342.8,162.7"/>
	<path class="st0" d="M132.8,254.2c-2.4-41.8,23.6-65.8,64.5-65.8c36.9,0,62.1,15.5,62.1,47.9c0,38.9-38,51.2-66.7,68.7v0.2h68.9
		v37.2H129.8c-0.9-14.6,3.5-27.3,10.9-37.6c12.7-17.7,34.5-29.3,54-41.1c7.9-4.8,20.6-10.9,20.6-22.1c0-13.8-8.1-18.6-18.4-18.6
		c-17.5,0-23.4,12.7-23,31.3H132.8z"/>
</g>
<path class="st0" d="M304.3,274.9h37.2v-42.6L304.3,274.9z M341.5,312.1h-67.6V271l69.5-80.9h43.5v84.8h20.6v37.2h-20.6v30.2h-45.5
	V312.1z"/>
<g>
	<path class="st2" d="M154.6,115.6v2.6c0,9.4,3.5,12.7,8.6,12.7c5.4,0,8.5-4.6,8.5-10.6"/>
	<path class="st2" d="M189.2,142.5c9.3-1.1,18.6-2.1,28-2.8l-18.4-93.3h24.9l11.9,74.7l0.3,3l12.6-78.5h24.9l-18.7,92.2
		c5.3-0.1,10.6-0.2,15.9-0.2c2.7,0,5.4,0,8,0.1v-92h59.7v16.3h-33.4v24.7h31.3V103h-31.3v24.8h34.7v13.3c7.6,0.8,15.3,1.7,22.8,2.8
		V62.8h-19.7V46.5h65.7v16.2h-19.7v85.3c13.7,2.5,27.3,5.4,40.9,8.7V0h-322v157.8c13.7-3.5,27.6-6.5,41.5-9.1"/>
	<path d="M198.8,117.8c0-38.1-42.9-28-42.9-48.6c0-4.7,2.5-9.2,8.2-9.2c5.1,0,7.5,5.1,7.5,11.2v2.5h24.5c0-22.3-9.7-32.1-32.6-32.1
		c-22.1,0-33,11.5-33,32.5c0,36.9,41.2,26.7,41.2,47.3c0,5.7-3.1,10.1-8.5,10.1c-5.1,0-8.6-3.2-8.6-12.1v-2.5h-25.4v3.6
		c0,16.3,6.9,24.7,19.7,27.8c13.3-2.3,26.7-4.3,40.2-5.9C195.5,137.3,198.8,129.2,198.8,117.8"/>
	<path d="M246.4,43.7l-10.6,78.5h-0.3L225,43.7h-27.9l20,96.1c12.5-0.9,25-1.6,37.6-1.8l19.7-94.3H246.4z"/>
	<path d="M304.8,125.7V105h31.3V83.7h-31.3V65.9h33.4V43.7h-59.7v94.1c20.4,0.2,40.8,1.4,60.9,3.4v-15.5H304.8z"/>
	<path d="M408.3,66.8v-23h-65.7v23h19.7v77.1c8.8,1.2,17.5,2.5,26.2,4V66.8H408.3z"/>
</g>
<rect class="st1" width="97.1" height="379"/>
<g>
	<path class="st0" d="M10.8,48.6h14.7v21h15.4V51.2h14.7v18.3h17.2V47.8h14.7v39.4H10.8V48.6z M31.6,141.3c-7.5-0.1-13-2.2-16.7-6.5
		c-3.6-4.1-5.4-9.5-5.4-16.2c0-6.7,1.8-12.1,5.4-16.3c3.7-4.2,9.3-6.4,16.8-6.5h7.1v17.6h-8.7c-1.5-0.1-3,0.1-4.5,0.6
		c-0.8,0.3-1.4,0.8-1.9,1.5c-0.4,0.7-0.6,1.8-0.6,3.1c0.1,2.4,0.9,3.8,2.5,4.4c1.5,0.5,3,0.7,4.5,0.7h38c0.5,0,1.1,0,1.8-0.1
		c0.8-0.1,1.6-0.3,2.4-0.6c1.8-0.6,2.8-2.1,2.8-4.4c0-1.3-0.3-2.4-0.9-3.1c-0.5-0.7-1.1-1.2-1.9-1.5c-1.7-0.4-3.1-0.6-4.2-0.6H56.8
		V95.8h9.7c14.4,0.3,21.8,7.9,22.1,22.7c-0.3,14.9-7.7,22.4-22.2,22.7H31.6z M10.8,150.5h76.6v17.6H10.8V150.5z M10.8,202.3
		l54.5-4.8v-0.2l-54.5-5.9v-17.8l76.6,13.1v21.9l-76.6,11.7V202.3z M68,254c0.5,0,1.1,0,1.8-0.1c0.8-0.1,1.6-0.3,2.4-0.6
		c1.8-0.6,2.8-2.1,2.8-4.4c0-1.4-0.3-2.4-0.9-3.1c-0.5-0.7-1.1-1.2-1.9-1.5c-1.7-0.4-3.1-0.6-4.2-0.6h-38c-1.5-0.1-3,0.1-4.5,0.6
		c-0.8,0.3-1.4,0.8-1.9,1.5c-0.4,0.7-0.6,1.8-0.6,3.1c0.1,2.4,0.9,3.8,2.5,4.4c1.5,0.5,3,0.7,4.5,0.7H68z M31.6,271.6
		c-7.5-0.1-13-2.2-16.7-6.5c-3.6-4.1-5.4-9.5-5.4-16.2c0-6.7,1.8-12.1,5.4-16.3c3.7-4.2,9.3-6.4,16.8-6.5h34.9
		c14.4,0.3,21.8,7.9,22.2,22.7c-0.3,14.9-7.7,22.4-22.2,22.7H31.6z M10.8,311.8l45.2-14.7v-0.2H10.8v-16.5h76.6v19.2L40,313.9v0.2
		h47.4v16.5H10.8V311.8z"/>
</g>
</svg>
